{"title":"F1 2011 Race 4 Turkey Qualifying HD 1080 H264 AC3","uid":6374942,"size":3545726779,"categoryP":"video","categoryS":"hd___tv_shows","magnet":"?xt=urn:btih:5b168cd47a5dbf6035711922a69386dd17c54c0b&amp;dn=F1+2011+Race+4+Turkey+Qualifying+HD+1080+H264+AC3&amp;tr=udp%3A%2F%2Ftracker.openbittorrent.com%3A80&amp;tr=udp%3A%2F%2Fopen.demonii.com%3A1337&amp;tr=udp%3A%2F%2Ftracker.coppersurfer.tk%3A6969&amp;tr=udp%3A%2F%2Fexodus.desync.com%3A6969","seeders":0,"leechers":1,"uploader":"jorrell0733","files":3,"time":1304823351,"description":"Formula One 2011 Season\n\nTurkey Grand Prix Qualifying in High Definition\n\nRace 4: Turkish Grand Prix, Istanbul Park Curcuit\n\nRecord Source: BBC One HD\nOriginal Format: MPEG TS Stream\nDate: Saturday 07th May 2011\nTime: 11:00 to 13:30\n\nJake Humphrey, Martin Brundle, David Coulthard &amp; Eddie Jordan present the F1 Qualifying coverage to the 4th Race\nmeeting of the 2011 Formula One season, The Turkish Grand Prix, from the Instanbul Park Curcuit.\n\nPlease Note: The BBC Broadcast had audio problems at the beginning of the coverage for around 5 minutes or so the sound \nis very quiet and sometimes cuts out, which they do apologise for!\n\nThis is not an encoding error on my behalf.. Bear with it! \nWithin a few mimutes the volume level is returned to normal for the remainder of the coverage.\n\nFor anyone who need it, or those unfamiliar with playing HD quality on their PC,\nIve included this first upload with an excellent player for MKV h.264 encoded media.\nIncluded in the torrent is VLC Media Player v1.1.9, just install and play! You can additionally\ninstall the AC3 filter for those using a home theatre system for digital passthrough AC3&gt;SPDIF output\n\nVideo: The Video is encoded using AVC/H.264 into a mkv container\nAudio: The audio is now Dolby Digital. Support for AC3 codec (2 channels as Live broadcasts are not 5.1)\n\n\nComplete name                    : F1 2011 Turkey GP Qualifying.HD.1080.H264.AC3.DD.mkv\nFormat                           : Matroska\nFile size                        : 3.30 GiB\nDuration                         : 2h 28mn\nOverall bit rate                 : 3 176 Kbps\nWriting application              : HandBrake 0.9.5\nWriting library                  : libmkv 0.6.4.1\n\nVideo\nID                               : 1\nFormat                           : AVC\nFormat/Info                      : Advanced Video Codec\nFormat profile                   : &lt;a class=&quot;__cf_email__&quot; href=&quot;/cdn-cgi/l/email-protection&quot; data-cfemail=&quot;1c517d75725c5028322c&quot;&gt;[email&amp;#160;protected]&lt;/a&gt;&lt;script cf-hash='f9e31' type=&quot;text/javascript&quot;&gt;\n/* &lt;![CDATA[ */!function(){try{var t=&quot;currentScript&quot;in document?document.currentScript:function(){for(var t=document.getElementsByTagName(&quot;script&quot;),e=t.length;e--;)if(t[e].getAttribute(&quot;cf-hash&quot;))return t[e]}();if(t&amp;&amp;t.previousSibling){var e,r,n,i,c=t.previousSibling,a=c.getAttribute(&quot;data-cfemail&quot;);if(a){for(e=&quot;&quot;,r=parseInt(a.substr(0,2),16),n=2;a.length-n;n+=2)i=parseInt(a.substr(n,2),16)^r,e+=String.fromCharCode(i);e=document.createTextNode(e),c.parentNode.replaceChild(e,c)}}}catch(u){}}();/* ]]&gt; */&lt;/script&gt;\nFormat settings, CABAC           : Yes\nFormat settings, ReFrames        : 4 frames\nFormat settings, GOP             : M=1, N=7\nCodec ID                         : V_MPEG4/ISO/AVC\nDuration                         : 2h 28mn\nBit rate                         : 3 050 Kbps\nWidth                            : 1 440 pixels\nHeight                           : 1 080 pixels\nDisplay aspect ratio             : 16:9\nFrame rate mode                  : Variable\nFrame rate                       : 25.000 fps\nColor space                      : YUV\nChroma subsampling               : 4:2:0\nBit depth                        : 8 bits\nScan type                        : Progressive\nBits/(Pixel*Frame)               : 0.078\nStream size                      : 3.10 GiB (94%)\nWriting library                  : x264 core 112\nEncoding settings                : cabac=1 / ref=2 / deblock=1:0:0 / analyse=0x1:0x111 / me=hex / subme=6 / psy=1 / psy_rd=1.00:0.00 / mixed_ref=0 / me_range=16 / chroma_me=1 / trellis=0 / 8x8dct=0 / cqm=0 / deadzone=21,11 / fast_pskip=1 / chroma_qp_offset=-2 / threads=3 / sliced_threads=0 / nr=0 / decimate=1 / interlaced=0 / constrained_intra=0 / bframes=2 / b_pyramid=2 / b_adapt=1 / b_bias=0 / direct=1 / weightb=0 / open_gop=0 / weightp=2 / keyint=250 / keyint_min=25 / scenecut=40 / intra_refresh=0 / rc_lookahead=40 / rc=abr / mbtree=1 / bitrate=3050 / ratetol=1.0 / qcomp=0.60 / qpmin=3 / qpmax=51 / qpstep=4 / ip_ratio=1.40 / aq=1:1.00\nLanguage                         : English\nColor primaries                  : BT.709-5, BT.1361, IEC 61966-2-4, SMPTE RP177\nTransfer characteristics         : BT.709-5, BT.1361\nMatrix coefficients              : BT.709-5, BT.1361, IEC 61966-2-4 709, SMPTE RP177\n\nAudio\nID                               : 2\nFormat                           : AC-3\nFormat/Info                      : Audio Coding 3\nMode extension                   : CM (complete main)\nCodec ID                         : A_AC3\nDuration                         : 2h 28mn\nBit rate mode                    : Constant\nBit rate                         : 128 Kbps\nChannel(s)                       : 2 channels\nChannel positions                : Front: L R\nSampling rate                    : 48.0 KHz\nBit depth                        : 16 bits\nCompression mode                 : Lossy\nStream size                      : 136 MiB (4%)\n\n\n\n\n\nEnjoy, The Blacknight\n","torrent":{"xt":"urn:btih:5b168cd47a5dbf6035711922a69386dd17c54c0b","amp;dn":"F1+2011+Race+4+Turkey+Qualifying+HD+1080+H264+AC3","amp;tr":["udp%3A%2F%2Ftracker.openbittorrent.com%3A80","udp%3A%2F%2Fopen.demonii.com%3A1337","udp%3A%2F%2Ftracker.coppersurfer.tk%3A6969","udp%3A%2F%2Fexodus.desync.com%3A6969"],"infoHash":"5b168cd47a5dbf6035711922a69386dd17c54c0b","infoHashBuffer":{"type":"Buffer","data":[91,22,140,212,122,93,191,96,53,113,25,34,166,147,134,221,23,197,76,11]},"announce":[],"urlList":[]}}